<svg xmlns="http://www.w3.org/2000/svg" viewBox="0 0 48 48"><g><path fill="#5382a1" d="M23.97 36.93c-4.13 0-8.13-.5-11.13-1.44-.53-.16-.84-.74-.68-1.27.16-.53.74-.84 1.27-.68 2.84.87 6.7 1.37 10.54 1.37 3.84 0 7.7-.5 10.54-1.37.53-.16 1.11.15 1.27.68.16.53-.15 1.11-.68 1.27-3 0.94-7 1.44-11.13 1.44zm-8.7-4.1c-.44-.36-.5-1.01-.14-1.45.36-.44 1.01-.5 1.45-.14 2.2 1.8 6.1 2.01 8.39 2.01 2.29 0 6.19-.21 8.39-2.01.44-.36 1.09-.3 1.45.14.36.44.3 1.09-.14 1.45-2.61 2.13-7.01 2.34-9.7 2.34-2.69 0-7.09-.21-9.7-2.34zm-2.13-4.13c-.41-.39-.43-1.04-.04-1.45.39-.41 1.04-.43 1.45-.04 1.7 1.62 5.13 1.8 7.22 1.8 2.09 0 5.52-.18 7.22-1.8.41-.39 1.06-.37 1.45.04.39.41.37 1.06-.04 1.45-2.01 1.91-6.01 2.09-8.63 2.09-2.62 0-6.62-.18-8.63-2.09zm-1.97-4.13c-.38-.42-.34-1.07.08-1.45.42-.38 1.07-.34 1.45.08 1.23 1.36 4.13 1.5 5.82 1.5 1.69 0 4.59-.14 5.82-1.5.38-.42 1.03-.46 1.45-.08.42.38.46 1.03.08 1.45-1.61 1.77-5.01 1.91-7.35 1.91-2.34 0-5.74-.14-7.35-1.91zm-1.8-4.13c-.36-.44-.3-1.09.14-1.45.44-.36 1.09-.3 1.45.14.77.94 2.7 1.01 3.81 1.01 1.11 0 3.04-.07 3.81-1.01.36-.44 1.01-.5 1.45-.14.44.36.5 1.01.14 1.45-.97 1.18-3.01 1.25-4.4 1.25-1.39 0-3.43-.07-4.4-1.25zm-1.63-4.13c-.33-.47-.21-1.12.26-1.45.47-.33 1.12-.21 1.45.26.31.44 1.13.5 1.63.5.5 0 1.32-.06 1.63-.5.33-.47.98-.59 1.45-.26.47.33.59.98.26 1.45-.54.77-1.77.84-2.34.84-.57 0-1.8-.07-2.34-.84z"/><path fill="#e76f00" d="M24.01 30.01c-2.13 0-4.13-.18-5.82-1.5-.38-.42-.34-1.07.08-1.45.42-.38 1.07-.34 1.45.08 1.23 1.36 4.13 1.5 5.82 1.5 1.69 0 4.59-.14 5.82-1.5.38-.42 1.03-.46 1.45-.08.42.38.46 1.03.08 1.45-1.69 1.32-3.69 1.5-5.82 1.5z"/><path fill="#5382a1" d="M24.01 26.01c-1.69 0-4.59-.14-5.82-1.5-.38-.42-.34-1.07.08-1.45.42-.38 1.07-.34 1.45.08 1.23 1.36 4.13 1.5 5.82 1.5 1.69 0 4.59-.14 5.82-1.5.38-.42 1.03-.46 1.45-.08.42.38.46 1.03.08 1.45-1.69 1.32-3.69 1.5-5.82 1.5z"/></g></svg> 