<svg width="120" height="40" viewBox="0 0 120 40" xmlns="http://www.w3.org/2000/svg">
  <defs>
    <linearGradient id="logoGradient" x1="0%" y1="0%" x2="100%" y2="100%">
      <stop offset="0%" style="stop-color:#00D4FF;stop-opacity:1" />
      <stop offset="50%" style="stop-color:#0099CC;stop-opacity:1" />
      <stop offset="100%" style="stop-color:#0066FF;stop-opacity:1" />
    </linearGradient>
    <filter id="glow">
      <feGaussianBlur stdDeviation="2" result="coloredBlur"/>
      <feMerge> 
        <feMergeNode in="coloredBlur"/>
        <feMergeNode in="SourceGraphic"/>
      </feMerge>
    </filter>
  </defs>
  
  <!-- Background tech pattern -->
  <rect width="120" height="40" fill="url(#logoGradient)" rx="8" opacity="0.1"/>
  
  <!-- Circuit pattern background -->
  <g stroke="#00D4FF" stroke-width="0.5" fill="none" opacity="0.3">
    <path d="M10,5 L15,5 L15,10 M25,8 L30,8 M35,12 L40,12 L40,17"/>
    <circle cx="15" cy="10" r="1" fill="#00D4FF"/>
    <circle cx="40" cy="17" r="1" fill="#00D4FF"/>
  </g>
  
  <!-- Main logo text -->
  <g fill="url(#logoGradient)" filter="url(#glow)">
    <!-- K -->
    <path d="M15,8 L15,32 M15,20 L25,8 M15,20 L25,32" stroke="url(#logoGradient)" stroke-width="3" stroke-linecap="round" stroke-linejoin="round" fill="none"/>
    
    <!-- S -->
    <path d="M35,12 Q30,8 35,8 Q45,8 40,16 Q35,20 40,20 Q50,20 45,28 Q40,32 35,32 Q30,32 35,28" stroke="url(#logoGradient)" stroke-width="3" stroke-linecap="round" stroke-linejoin="round" fill="none"/>
    
    <!-- M -->
    <path d="M55,32 L55,8 L65,20 L75,8 L75,32 M60,32 L60,16 M70,32 L70,16" stroke="url(#logoGradient)" stroke-width="3" stroke-linecap="round" stroke-linejoin="round" fill="none"/>
  </g>
  
  <!-- Tech accent dots -->
  <circle cx="85" cy="15" r="1.5" fill="#00D4FF" opacity="0.8"/>
  <circle cx="90" cy="20" r="1" fill="#0099CC" opacity="0.6"/>
  <circle cx="95" cy="25" r="1.5" fill="#0066FF" opacity="0.8"/>
</svg>