<svg xmlns="http://www.w3.org/2000/svg" viewBox="0 0 256 255"><linearGradient id="a" x1="12.959" x2="243.75" y1="8.158" y2="243.632" gradientUnits="userSpaceOnUse"><stop offset="0" stop-color="#387eb8"/><stop offset="1" stop-color="#366994"/></linearGradient><linearGradient id="b" x1="42.384" x2="212.357" y1="32.436" y2="224.414" gradientUnits="userSpaceOnUse"><stop offset="0" stop-color="#ffe052"/><stop offset="1" stop-color="#ffc331"/></linearGradient><g><path d="M126.916.003c-63.68.29-59.77 27.64-59.77 27.64l.073 28.66h60.6v8.6H49.12S.003 60.13.003 127.5c0 67.37 39.13 64.98 39.13 64.98h22.47v-31.6s-1.22-39.13 38.13-39.13h60.6s36.91 0 36.91-35.36V35.28S202.7.003 126.916.003zm-34.13 19.6a13.1 13.1 0 1 1 0 26.2 13.1 13.1 0 0 1 0-26.2z" fill="url(#a)"/><path d="M128.67 254.997c63.68-.29 59.77-27.64 59.77-27.64l-.073-28.66h-60.6v-8.6h78.7s49.19 4.77 49.19-62.6c0-67.37-39.13-64.98-39.13-64.98h-22.47v31.6s1.22 39.13-38.13 39.13h-60.6s-36.91 0-36.91 35.36v59.14s-1.22 35.28 74.56 35.28zm34.13-19.6a13.1 13.1 0 1 1 0-26.2 13.1 13.1 0 0 1 0 26.2z" fill="url(#b)"/></g></svg> 