<svg xmlns="http://www.w3.org/2000/svg" viewBox="0 0 512 511"><g><path d="M501.6 382.6 312.7 70.2c-27.2-44.2-86.2-44.2-113.4 0L10.4 382.6c-27.2 44.2 5.4 100 56.7 100h377.8c51.3 0 83.9-55.8 56.7-100z" fill="#6db33f"/><g fill="#fff"><path d="M255.9 362.7c-58.9 0-106.8-47.9-106.8-106.8 0-58.9 47.9-106.8 106.8-106.8 39.2 0 75.2 21.6 93.8 56.4 2.6 4.9.7 11-4.2 13.6-4.9 2.6-11 .7-13.6-4.2-14.7-27.6-43.2-44.8-76-44.8-46.2 0-83.8 37.6-83.8 83.8 0 46.2 37.6 83.8 83.8 83.8 32.8 0 61.3-17.2 76-44.8 2.6-4.9 8.7-6.8 13.6-4.2 4.9 2.6 6.8 8.7 4.2 13.6-18.6 34.8-54.6 56.4-93.8 56.4z"/><path d="M255.9 320.7c-35.9 0-65.1-29.2-65.1-65.1 0-35.9 29.2-65.1 65.1-65.1 25.2 0 48.3 14.1 59.6 36.8 2.6 4.9.7 11-4.2 13.6-4.9 2.6-11 .7-13.6-4.2-7.7-14.5-23.1-23.6-41.8-23.6-25.2 0-45.7 20.5-45.7 45.7 0 25.2 20.5 45.7 45.7 45.7 18.7 0 34.1-9.1 41.8-23.6 2.6-4.9 8.7-6.8 13.6-4.2 4.9 2.6 6.8 8.7 4.2 13.6-11.3 22.7-34.4 36.8-59.6 36.8z"/><path d="M255.9 278.7c-12.6 0-22.9-10.3-22.9-22.9 0-12.6 10.3-22.9 22.9-22.9 12.6 0 22.9 10.3 22.9 22.9 0 12.6-10.3 22.9-22.9 22.9z"/></g></g></svg> 